<svg xmlns="http://www.w3.org/2000/svg" width="32" height="32" viewBox="0 0 32 32" style="fill: rgba(52, 95, 169, 1);transform: ;msFilter:;"><path d="M22.667 18.667a6.667 6.667 0 0 0 3.613 -1.08L26.667 17.333a4 4 0 0 0 0.6 -0.493l0.28 -0.267a6 6 0 0 0 0.64 -0.773l0.08 -0.107a5.733 5.733 0 0 0 0.547 -1.013 2.133 2.133 0 0 0 0.12 -0.307 5.333 5.333 0 0 0 0.267 -0.84l0.08 -0.333A7.333 7.333 0 0 0 29.333 12V2.667l-4 4h-5.333l-4 -4v9.333a6.667 6.667 0 0 0 6.667 6.667m2.667 -9.333a1.333 1.333 0 1 1 -1.333 1.333 1.333 1.333 0 0 1 1.333 -1.333m-5.333 0a1.333 1.333 0 1 1 -1.333 1.333 1.333 1.333 0 0 1 1.333 -1.333"/><path d="M14.667 29.333v-6.667H10.667v6.667H6.667V15.867a4.653 4.653 0 0 1 -3.307 -2.187A4.8 4.8 0 0 1 2.667 11.333 4.867 4.867 0 0 1 8 6.667a2.52 2.52 0 0 0 2.667 -2.667 1.333 1.333 0 0 1 1.333 -1.333 1.333 1.333 0 0 1 1.333 1.333 5.187 5.187 0 0 1 -5.333 5.333C5.587 9.333 5.333 10.88 5.333 11.347S5.573 13.333 8 13.333h6.787A8 8 0 0 0 25.333 19.533V29.333h-4v-6.667h-2.667v6.667z"/></svg>