<?xml version="1.0" encoding="UTF-8"?>
<svg id="Capa_1" data-name="Capa 1" xmlns="http://www.w3.org/2000/svg" viewBox="0 0 137.96 150.96">
  <defs>
    <style>
      .cls-1 {
        fill: #9a3367;
      }

      .cls-1, .cls-2 {
        stroke-width: 0px;
      }

      .cls-2 {
        fill: #fff;
      }
    </style>
  </defs>
  <path class="cls-1" d="M136.02,58.95c-1.66-1.66-3.82-9.54-3.54-11.22.32-1.94-2.3-12.32-2.83-14.38-.04-.16-.13-.3-.25-.4-.2-.16-19.58-16.2-21.99-21.61-2.6-5.85-11.73-10.46-14.11-10.46-.01,0-.03,0-.04,0-.96.03-2.41.32-4.24.69-4.01.81-9.49,1.92-12.79.72-3.25-1.18-8.05-1.71-13.53-1.47h-.09c-.78.04-1.56.44-2.24.79-.46.24-1.1.57-1.37.53-.41-.06-.81-.33-1.31-.67-1.03-.69-2.43-1.65-5.1-1.46-3.88.26-9.05,3.97-11.8,7.41-.98,1.23-1.21,2.02-1.15,2.6-.25.07-.58.16-.96.27-1.57.43-2.65-.43-3.7-1.26-.9-.72-1.93-1.53-3.06-.85-1.52.91-1.67,3.33-1.65,4.49-2,.67-6.06,1.87-7.55,1.66-2.89-.41-6.49,5.29-7.69,8.29-1.12,2.81-3.98,4.28-4.01,4.29-.37.19-.52.64-.34,1.01.02.04.47,1.03-.04,2.55-.08.23-.04.48.1.67l4.25,6.11c-.47,1.42-1.89,5.87-2.27,9.29C4.74,57.44,0,70.84,0,85.36,0,121.59,29.37,150.96,65.6,150.96s65.6-29.37,65.6-65.6c0-2.33-.14-4.62-.38-6.88,2.37-2.01,6.82-9.19,6.96-9.74.34-1.37.38-7.65-1.76-9.79Z"/>
  <g>
    <path class="cls-2" d="M122.47,47.17c-3.43,3.16-7.24,5.84-11.5,7.77.49.44.98.87,1.47,1.31l1.52,1.39.19.17s.04.03.11.11c.06.07.12.15.17.23.02.04.03.08.05.12,2.24-.22,4.56.02,6.78.27,2.29.13,4.5,1.76,6.76.44,1.47-.85,2.66-2.55,2.86-4.27-.57-2.84-2.66-5.06-4.11-7.74-.04-.06.04-.15.11-.11,2.37,1.75,5.39,4.75,4.83,7.97-.08.31-.26.67-.42.94-.8,1.39-1.56,2.74-2.78,3.88-2.04,2.08-5,.78-7.5.49-2.06-.45-4.34-.75-6.36-1.44.1.44.07.9.06,1.35-.08.84-.2,1.68-.35,2.5,1.9-.08,3.78.08,5.63.49,2.21.72,4.5,1.23,6.84.9,1.21-.09,2.37-.48,3.54-.9,1.07-.41,2.78-.77,3.67.29.91,1.05,1.77,2.13,2.53,3.29.02-2.15-.33-5.48-1.5-6.65-2.06-2.06-4.32-10.41-3.96-12.54.17-.99-.94-6.12-2-10.52-.27,1.64-.83,3.23-1.65,4.68-1.37,2.09-3.15,3.89-4.98,5.56Z"/>
    <path class="cls-2" d="M132.18,64.27c-1.32.22-3.05.89-4.59.82-1.58-.16-3.1-.64-4.67-.74-2.07-.05-4.17.05-6.18-.58-.83-.22-1.65-.47-2.45-.81-.1.56-.22,1.12-.34,1.68,2.7,1.39,4.77,3.53,6.81,5.71,1.44,1.23,3.31,2.15,5.09,2.71,2.36.29,4.79.26,7.23.5,1.61-2.21,3.2-4.63,3.36-5.22.06-.25.11-.71.12-1.27-1.27-.79-2.42-1.69-3.54-2.65-.3-.2-.46-.17-.83-.13Z"/>
    <path class="cls-2" d="M109.03,79.14c.07.19.12.42.15.67,1.09-4.74,2.89-11.16,3.69-15.82.26-1.69.7-3.4.47-5.06-.01-.03-.03-.12-.02-.07,0,0,.01.01.02.01.02,0-.05-.05-.07-.07l-.19-.17c-2.57-2.28-5.15-4.61-7.65-6.95-6.33-4.64-13.28-9.99-20.24-14.22-1.04-.61-2.04-1.3-3.16-1.7,0,0,0,0-.01,0l-.06.04c-1.15,1-2.73,2.31-4.34,1.43-.16-.06-.5-.16-.67-.19-5.01-1.11-10.15-1.8-15.24-2.47-3.3-.39-6.62-.75-9.93-.7-.64.04-1.5.09-2.08.25-5.34,1.94-10.85,3.97-15.98,6.49-1.83,1.53-3.75,3.12-5.53,4.72-3.34,2.6-4.26,6.82-5.51,10.67-.02.09-.17.05-.15-.04.72-3.04,1.21-6.22,2.89-8.95,2.18-2.85,4.95-5.1,7.58-7.47,3.31-1.9,6.85-3.28,10.35-4.76,2.93-1.1,5.96-2.73,9.19-2.51,8.46.4,16.87,1.85,25.04,4.04,0,0,.42.17.42.17,1.31.77,2.61-.5,3.65-1.25.37-.29.8.03,1.14.17,4.52,2.57,8.69,5.66,13.07,8.44,3.49,2.27,6.97,4.54,10.41,6.87,1.48,1.3,2.94,2.62,4.4,3.94,1.62-1.57,3.35-2.96,5.13-4.27,2-1.39,4.04-2.71,6.17-3.9,1.09-.58,2.02-1.3,2.75-2.27.74-.95,1.16-2.1,1.6-3.2l1.4-3.27c.33-.79.66-1.59.99-2.39-.12-.5-.25-.99-.36-1.44-2.16-1.8-19.77-16.51-22.21-22-2.38-5.36-11-9.55-12.7-9.55,0,0-.02,0-.02,0-.83.02-2.29.32-3.98.66-4.18.85-9.91,2.01-13.61.66-3.06-1.12-7.66-1.61-12.94-1.38h-.09c-.44.02-1.04.33-1.61.62-.79.41-1.54.79-2.28.68-.75-.11-1.33-.5-1.94-.91-.94-.63-2.01-1.35-4.15-1.21-3.42.23-8.22,3.73-10.71,6.84-.36.45-.94,1.26-.79,1.61.06.14.19.45.02.82-.21.44-.46.51-2.12.96-2.31.63-3.89-.62-5.04-1.53-.67-.53-1.13-.87-1.33-.74-.87.52-.97,2.69-.88,3.66.03.35-.18.67-.51.78-.66.23-6.49,2.24-8.8,1.91-1.5-.2-4.74,4.03-6.06,7.35-1.02,2.55-3.15,4.12-4.17,4.76.13.59.23,1.51-.08,2.64l4.26,6.13c.14.2.17.45.09.68-.87,2.54-2.98,9.61-2.27,11.85.86,2.72,4.65,11.06,5.88,13.03.1.14.18.25.26.35.1.07.19.16.25.27.03.02.05.03.07.03v.14c.02.07.03.13.03.21,0,.05-.02.09-.03.14v.92l1.88,14.85s.23-.26.64-.71c-.58,3.93-.96,7.89-.97,11.89.03,2.06.1,4.19.74,6.28,1.98,5.9,4.73,11.45,7.85,16.82,1.58,2.65,3.28,5.28,5.41,7.55.71.74,1.5,1.47,2.45,1.87-1.71-1.14-2.77-2.96-3.86-4.65-4.1-6.99-7.66-14.42-10.45-22.02-.6-1.84-.77-3.84-.87-5.87-.18-4.05-.09-8.15.04-12.24,2.94-3.25,11.69-12.83,15.58-15.78,2.71-2.05,9.12-5.02,12.5-5.31.92-.08,2.09.03,3.36.22-.03.95-.04,1.91-.1,2.84-.02.26-.05.4-.15.64-.43,1.54-.89,3.1-.84,4.73.16,1.79.62,4.31.87,6.1.1,2.81-.12,5.57.11,8.39.41-2.52.63-5.1.93-7.62.02-.39-.01-.59-.03-.87-.15-1.75-.44-3.61-.68-5.35-.29-1.75.19-3.55.56-5.27.16-.75.04-1.52-.01-2.26l-.11-1.23c1.92.3,4,.73,5.7.92-.04.55-.08,1.11-.09,1.65-.1,1.69-.18,3.45-.39,5.11v.04s-.01,1.42-.01,1.42c-.58.87-1.17,1.72-1.47,2.75-.07.29,0,.48.1.79.1.74.24,1.67-.11,2.41-.24,1.08.16,1.89.17,2.91.05.66.28,1.3.52,1.86.42.98,1.02,2.43,1.58,3.32-.46-1.7-1.18-3.46-1.3-5.21.06-.8-.17-1.82-.02-2.55.44-.81.4-2.01.25-2.97-.01-.07-.06-.22-.09-.31.3-.88.9-1.7,1.4-2.5l.1-.15v-.17c0-2.79.2-5.39-.05-8.33.52.04,1,.06,1.42.03.4-.03,1.58-.25,3.17-.48-.2.69-.39,1.38-.53,2.09v.42c-.09,2.56-.03,5.32-.88,7.72-.5,1.24-1.15,2.92-1.62,4.18-.3.94-.26,1.96-.35,2.93l-.05.8c0,.16-.05.5-.06.64.21,1.18.67,2.25,1.09,3.33-.17-1.06-.4-2.14-.5-3.17l.51-3.11c.08-.38.11-.71.26-1.06.1-.23.69-1.58.8-1.83.2-.49.73-1.74.93-2.21.62-1.3.64-2.82.75-4.16.11-1.35.04-2.75-.07-4.09l-.03-.39c.08-.72.19-1.44.3-2.16,1.53-.21,3.35-.4,5.2-.45-.25.98-.59,1.92-1.13,2.76-.67.7-1.25,1.57-1.34,2.56-.21,1.78.21,3.64-.22,5.32-.23,1.2-1.25,2.08-1.45,3.23l-.9,3.49c-.72,2.35-.7,5.01.35,7.2-1.05-3.62.62-7.01,1.59-10.37.33-1.24,1.32-2.05,1.52-3.28.28-1.28.22-2.55.13-3.74-.12-1.36-.12-2.55.69-3.52.08-.09.22-.28.29-.38.56-1,.83-2.11.96-3.25,2.24-.02,4.47.18,6.2.88,4.31,1.75,6.21,1.64,9.03,3.52,2.81,1.88,8.44,7.82,11.25,9.38,2.81,1.56,8.75,5.63,9.69,8.13ZM99.87,43.1c.55-.72,1.48-.85,2.26-.99,1.31-.25,2.62.15,3.9.27,1.8.18,3.62-.31,5.43.04,1.67.43,3.16,1.1,4.63,2.05.05.02.38.27.36.33.16.28.35.59.49.88.21.39.4.79.57,1.21.02.04,0,.09-.05.1-.02,0-.05,0-.07,0-.63-.43-1.17-.89-1.73-1.4-1.11-.39-2.5-.8-3.65-1.34,0,0-1.05-.45-1.05-.45-1.59-.32-3.27-1-4.94-.91-.85.03-1.68.29-2.5.44-.98.18-1.99.15-2.85.37.01-.01,0-.04,0-.05,0-.02-.03-.08-.04,0,.07.25.41.6.71.9.06.05,0,.15-.07.13-.65-.02-1.92-.65-1.38-1.55ZM89.4,14.7c.23-1.76.6-3.56,1.71-5.01.5-.73,1.06-1.42,1.78-1.99.06-.05.15.01.13.08-.48,1.69-1.14,3.25-1.95,4.77-.86,1.33-1.85,3.09-1.16,4.67.83,1.48,1.36,3.33,1.58,5.03.17,1.75.16,3.52-.23,5.28-.01.07-.13.08-.15,0-1.15-3.37-1.4-6.67-2-10.12-.06-.99.16-1.85.3-2.72ZM75.21,27.67c1.1-.64,1.87-1.81,3.13-2.24,2.55-.96,4.87,1.15,3.53,3.68-.03.07-.13.07-.15,0-.25-.62-.36-1.24-.63-1.61-.44-.62-1.27-.67-1.98-.74-1.19.21-2.63.48-3.61,1.31-.85.86-1.48,1.94-2.59,2.54-.52.32-1.04.64-1.68.85-.06.02-.13-.04-.11-.11.78-1.94,2.27-2.92,4.1-3.68ZM51.01,29.56c.4-1.66.49-3.54.95-5.23.37-1.73,1.27-3.33,1.68-5.03.79-2.67-.56-5.3-.28-8,.04-.9.11-1.8.33-2.71.01-.07.13-.08.15-.01,1.06,2.6.97,5.37.54,8.07-.11,1.79.42,3.79-.21,5.52-.38,1.75-.83,3.49-1.56,5.14-.42.85-.71,1.76-1.5,2.39-.09.03-.13-.03-.08-.13ZM34.71,14.55c1.1,0,1.97,1.12,2.03,2.18,0,0,.04.72.04.72.18,1.59-.15,3.19-.15,4.78.19,2.72,1.28,5.24,2.29,7.73.46,1.27,1.05,2.79.78,4.23-.07.47-.14.94-.35,1.41-.02.04-.06.06-.1.04-.2-.64-.3-1.41-.48-2.07-.33-1.02-.9-1.94-1.35-2.99-.37-.84-.67-1.75-.89-2.69-.47-1.88-.08-3.75-.39-5.61-.29-1.59-.85-3.19-.65-4.84.16-1,.17-1.98-.82-2.72-.07-.03-.04-.15.04-.15ZM21.56,20.38c.95-.12,1.62.75,2.09,1.42,1.45,2.1.64,4.67,1.55,6.95.46,1.52.62,3.13.56,4.71-.02,1.54-.67,3.02-.59,4.53.01.05-.02.09-.06.1-.4-.21-.54-.76-.66-1.15-.56-2.69-.22-5.38-.07-8.09.19-1.57-.35-3.07-1.06-4.43-.61-1.3-.67-2.94-1.78-3.91-.05-.03-.04-.12.02-.13Z"/>
    <path class="cls-2" d="M61.36,128.49c1.72.7,3.5,1.16,5.37,1.22-2.19-1.19-4.59-1.63-6.97-2.19.42.48,1.04.7,1.6.96Z"/>
    <path class="cls-2" d="M42.77,91.04c1.02,2.58,2.15,2.97,2.15,2.97,0,0,2.5-3.4,1.29-5.24-1.78-2.71-2.89-2.56-2.66-2.42l-.21.35s-1.59,1.76-.57,4.34Z"/>
    <path class="cls-2" d="M81.51,87.15h-.29s-1.68,1.88-1.56,3.91c.12,2.02,1.56,3.49,1.56,3.49,0,0,2.5-.83,2.29-3.7-.21-2.87-2-3.7-2-3.7Z"/>
    <path class="cls-2" d="M72.96,90.01c-2.45,3.9-3.82,8.36-4.53,12.86-.52,3.04-1.4,8.64-1.94,11.62-.02.08-.11.57-.16.83-1.53-.22-3.16-1.36-4.75-.93-1.28.29-2.44,1.07-3.69.97-.14-.03-.16-.07-.23-.15-.01-.03-.26-.48-.37-.62-.24-.27-.57-.46-.89-.57-1.36-.32-2.7.29-3.95.27-.47,0-.7-.16-.82-.34-.33-.75-.35-2.06-.38-2.97-.08-4.43.45-8.9.48-13.46-.03-2.29-.14-4.7-1.16-6.82-1.05-2.1-2.73-3.91-4.84-4.93-4.27-1.8-9.17-.71-13.31.89,5-1.51,11.67-2.65,15.49,1.78,1.67,1.72,2.35,3.89,2.57,6.18-2.63,2.25-7.3,1.93-10.38,1.03-2.99-.81-3.29-4.45-3.48-7.06-.06-.97-.05-1.94,0-2.91-.31,1.92-.38,3.9-.08,5.86.26,1.96,1.3,4.14,3.39,4.65,3.22.9,8.07,1.11,10.57-1.48.08.92.1,1.86.07,2.8-.17,4.43-.73,8.92-.74,13.48.09,1.49-.15,3.64,1.4,4.47-.34,1.12.23,2.41,1.52,2.59.81.19,1.65-.09,2.29.16.33.43.4,1.21.51,1.84.1.71.12,1.52.37,2.27.07.17.18.3.28.39.86.66,1.82,1.22,2.93,1.27,0,0,.01,0,.02,0-.07,1.09-.01,2.18-.1,3.25,0,.02,0,.02,0,.03-.1.07-.26.17-.42.25-1.34.71-2.77,1.32-4.05,2.18.77-.14,1.52-.35,2.25-.61.93-.34,1.88-.65,2.71-1.26.17-.14.24-.37.24-.48.04-1.16-.18-2.28-.49-3.38.92-.2,2.06-.38,2.75-1.28.32-.35.33-1.18.03-1.55-.39-.62-.94-.92-1.26-1.46-.01-.03-.02,0-.03-.02.28-.46,1.1-.42,1.72-.52,1.44-.08,3.94-.6,4.23-2.32.18-.02.36-.07.54-.16.26-.1.45-.58.49-.83.04-.11.18-.96.21-1.08.55-3.02,1.32-8.6,1.81-11.68.31-2.23.74-4.35,1.44-6.48.56-1.65,1.14-3.34,1.94-4.89.65,3.5,3.18,6.09,6.92,6.28,7.54,1.14,9.83-5.65,10.02-11.87.7.02,1.4.04,2.1.06-2.23-.25-4.48-.45-6.73-.52-4.51-.21-9.78.1-12.48,4.34ZM65.6,117.83c-1.02.47-2.03.47-3.16.39-.92-.02-2.27-.12-2.82.99-.5,1.07.82,1.99,1.2,2.65,0,0,0,0,0,0-.04.06-.18.17-.38.25-.4.18-.85.26-1.45.39-.56-.1-1.41-.57-1.75-.78-.02-.07-.04-.15-.06-.24-.21-1.06-.35-2.37-.81-3.38-.15-.34-.46-.76-.85-.91-.96-.38-1.86.13-2.7.09-1,.04-1.49-.83-1.52-1.74,1.51.65,3.22-.28,4.67-.07.06.05.14.02.19.16.73,1.81,2.83,1.3,4.24.76.73-.23,1.39-.61,2.08-.57.76.12,1.51.43,2.29.67.6.16,1.24.43,1.89.35-.16.5-.63.79-1.07,1ZM83.54,97.34c-5.01.8-9.02-.72-10.36-5.72.44-.83.95-1.62,1.57-2.32,2.66-3,6.91-3.11,10.68-3.23,1.54-.02,3.08.01,4.62.06-.59,4.23-1.76,10.03-6.51,11.21Z"/>
    <path class="cls-2" d="M125.47,74.45c-2.14-.8-3.24-2.53-5.02-3.71-1.7-1.08-3.5-2.07-4.83-3.63-.63-.68-1.23-1.39-1.73-2.2-.57,2.47-1.31,4.89-2.01,7.33-.8,2.64-1.66,5.26-2.6,7.85,0,.03-.03.04-.06.04.25,3.08-1.58,9.16-.19,10.27.44.35.64.94.73,1.6-.02.31-.04.62-.05.92-.02.77-.17,1.82.28,2.56.03.11.05.22.08.31.03-.03.07-.04.11-.06.04.05.08.1.13.14.16.13.31.2.47.26-.09.38-.2.84-.17.83.18,7.62-6.1,13.23-9.79,19.34,5.16-4.98,11.99-12.08,11.03-19.24,0-.09.2-1.34.19-1.42.6-.21,1.33-.63,2.13-1.25,3.27-2.56,5.93-6.75,5.8-7.64-.14-.2-.3-.53-.22-1.02-1.95-.54-3.98-1.51-4.95-3.21-.43-.94-.61-1.98-1.13-2.85-1.28-1.69-2.23-3.34-2.14-5.57,0-.07.09-.11.14-.05,1.53,1.59,1.99,3.37,2.44,5.41.42,1.12,1.39,2.16,2.26,2.9.5.3,1.11.6,1.65.95.71.48,1.41,1,2.06,1.59,1.44-2.39,8.08-7.09,9.72-7.44.44-.27,1.46-1.5,2.57-2.98-2.27.49-4.6.59-6.9-.05Z"/>
  </g>
</svg>