<?xml version="1.0" encoding="UTF-8"?>
<svg id="Capa_1" data-name="Capa 1" xmlns="http://www.w3.org/2000/svg" viewBox="0 0 137.96 150.96">
  <defs>
    <style>
      .cls-1 {
        fill: #345fa9;
        stroke-width: 0px;
      }
    </style>
  </defs>
  <path class="cls-1" d="M90.97,27.58c.02.08.14.07.15,0,.39-1.76.41-3.53.23-5.28-.21-1.7-.75-3.55-1.58-5.03-.69-1.59.29-3.34,1.16-4.67.81-1.53,1.46-3.08,1.95-4.77.02-.07-.07-.13-.13-.08-.72.57-1.28,1.27-1.78,1.99-1.1,1.45-1.48,3.25-1.71,5.01-.14.88-.37,1.73-.3,2.72.61,3.46.85,6.76,2,10.12Z"/>
  <path class="cls-1" d="M52.48,27.34c.73-1.65,1.19-3.39,1.56-5.14.63-1.73.11-3.73.21-5.52.44-2.7.53-5.47-.54-8.07-.03-.07-.14-.06-.15.01-.22.92-.29,1.82-.33,2.71-.28,2.7,1.07,5.33.28,8-.41,1.7-1.31,3.3-1.68,5.03-.46,1.69-.55,3.58-.95,5.23-.04.09,0,.16.08.13.8-.63,1.09-1.53,1.5-2.39Z"/>
  <path class="cls-1" d="M35.38,17.46c-.2,1.65.36,3.25.65,4.84.31,1.87-.07,3.74.39,5.61.22.94.51,1.85.89,2.69.45,1.05,1.01,1.97,1.35,2.99.19.66.28,1.43.48,2.07.04.02.08,0,.1-.04.2-.47.28-.94.35-1.41.27-1.44-.31-2.96-.78-4.23-1.01-2.49-2.1-5.01-2.29-7.73,0-1.59.33-3.18.15-4.78,0,0-.04-.72-.04-.72-.06-1.05-.93-2.17-2.03-2.18-.08,0-.11.11-.04.15.99.74.98,1.72.82,2.72Z"/>
  <path class="cls-1" d="M71.1,31.49c.64-.21,1.16-.53,1.68-.85,1.11-.6,1.74-1.68,2.59-2.54.98-.83,2.42-1.09,3.61-1.31.71.08,1.54.12,1.98.74.27.37.39.99.63,1.61.03.07.13.07.15,0,1.34-2.53-.98-4.64-3.53-3.68-1.26.43-2.03,1.6-3.13,2.24-1.82.76-3.32,1.73-4.1,3.68-.03.06.04.13.11.11Z"/>
  <path class="cls-1" d="M17.3,43.63c.21.17.55.35.66.64.27.61-.15,1.34-.06,1.97-.02,1.06.58,2.32,1.73,2.55.05,0,.09-.05.09-.1-.05-.76,0-1.28-.11-1.89-.16-.61-.4-1.21-.8-1.74-.21-.29-.35-.58-.38-.91-.04-.34.07-.76-.04-1.15-.25-.76-1.14-1.27-1.94-1.01-.05.02-.08.08-.05.13.36.71.51,1.13.89,1.51Z"/>
  <path class="cls-1" d="M19.83,51.36c-.05-.47-.12-1.08-.49-1.53-.75-.82-2.01-.88-2.9-.3-.05.03-.05.11,0,.15.43.27.82.44,1.17.63.35.17.61.36.9.48.29.11.71.29.84.69.27.79-.39,1.76-.4,2.59-.22,1.38-.05,2.63.64,3.95.03.06.12.06.15,0,.69-1.29.86-2.6.64-3.97-.09-.92-.51-1.73-.56-2.68Z"/>
  <path class="cls-1" d="M24.25,28.89c-.15,2.71-.49,5.4.07,8.09.12.39.26.94.66,1.15.05,0,.08-.06.06-.1-.08-1.5.56-2.99.59-4.53.06-1.58-.1-3.19-.56-4.71-.91-2.28-.1-4.85-1.55-6.95-.47-.67-1.14-1.54-2.09-1.42-.06,0-.08.1-.02.13,1.11.97,1.17,2.61,1.78,3.91.71,1.36,1.25,2.86,1.06,4.43Z"/>
  <path class="cls-1" d="M101.13,44.69c.07.01.12-.08.07-.13-.29-.3-.64-.65-.71-.9.01-.08.04-.02.04,0,.01.02.02.04,0,.05.85-.22,1.87-.19,2.85-.37.82-.15,1.66-.41,2.5-.44,1.67-.09,3.35.59,4.94.91,0,0,1.05.45,1.05.45,1.15.54,2.54.96,3.65,1.34.55.5,1.1.97,1.73,1.4.02.01.05.02.07,0,.04-.02.06-.06.05-.1-.16-.41-.36-.81-.57-1.21-.14-.29-.34-.6-.49-.88.02-.06-.31-.31-.36-.33-1.46-.96-2.96-1.62-4.63-2.05-1.81-.35-3.62.14-5.43-.04-1.28-.11-2.59-.52-3.9-.27-.78.14-1.71.27-2.26.99-.54.9.73,1.53,1.38,1.55Z"/>
  <path class="cls-1" d="M136.02,58.95c-1.66-1.66-3.82-9.54-3.54-11.22.32-1.94-2.3-12.32-2.83-14.38-.04-.16-.13-.3-.25-.4-.2-.16-19.58-16.2-21.99-21.61-2.6-5.85-11.73-10.46-14.11-10.46-.01,0-.03,0-.04,0-.96.03-2.41.32-4.24.69-4.01.81-9.49,1.92-12.79.72-3.25-1.18-8.05-1.71-13.53-1.47h-.09c-.78.04-1.56.44-2.24.79-.46.24-1.1.57-1.37.53-.41-.06-.81-.33-1.31-.67-1.03-.69-2.43-1.65-5.1-1.46-3.88.26-9.05,3.97-11.8,7.41-.98,1.23-1.21,2.02-1.15,2.6-.25.07-.58.16-.96.27-1.57.43-2.65-.43-3.7-1.26-.9-.72-1.93-1.53-3.06-.85-1.52.91-1.67,3.33-1.65,4.49-2,.67-6.06,1.87-7.55,1.66-2.89-.41-6.49,5.29-7.69,8.29-1.12,2.81-3.98,4.28-4.01,4.29-.37.19-.52.64-.34,1.01.02.04.47,1.03-.04,2.55-.08.23-.04.48.1.67l4.25,6.11c-.47,1.42-1.89,5.87-2.27,9.29C4.74,57.44,0,70.84,0,85.36c0,36.23,29.37,65.6,65.6,65.6s65.6-29.37,65.6-65.6c0-2.33-.14-4.62-.38-6.88,2.37-2.01,6.82-9.19,6.96-9.74.34-1.37.38-7.65-1.76-9.79ZM130.98,47.49c-.36,2.13,1.9,10.48,3.96,12.54,1.17,1.17,1.51,4.51,1.5,6.65-.76-1.17-1.62-2.25-2.53-3.29-.89-1.06-2.6-.69-3.67-.29-1.17.42-2.33.81-3.54.9-2.34.33-4.63-.18-6.84-.9-1.85-.4-3.73-.57-5.63-.49.14-.83.27-1.66.35-2.5,0-.46.04-.91-.06-1.35,2.03.69,4.3.99,6.36,1.44,2.5.29,5.46,1.59,7.5-.49,1.22-1.14,1.98-2.49,2.78-3.88.16-.27.33-.63.42-.94.56-3.22-2.46-6.23-4.83-7.97-.07-.05-.15.04-.11.11,1.45,2.68,3.55,4.9,4.11,7.74-.19,1.73-1.39,3.42-2.86,4.27-2.26,1.32-4.47-.31-6.76-.44-2.22-.25-4.54-.49-6.78-.27-.02-.04-.03-.08-.05-.12-.05-.08-.11-.16-.17-.23-.07-.08-.07-.07-.11-.11l-.19-.17-1.52-1.39c-.48-.44-.98-.87-1.47-1.31,4.26-1.93,8.07-4.61,11.5-7.77,1.83-1.67,3.61-3.48,4.98-5.56.82-1.45,1.38-3.04,1.65-4.68,1.06,4.4,2.16,9.53,2,10.52ZM61.24,128.53c-.56-.26-1.18-.49-1.6-.96,2.38.56,4.78,1,6.97,2.19-1.87-.06-3.65-.53-5.37-1.22ZM89.94,86.17c-.19,6.22-2.48,13.01-10.02,11.87-3.74-.19-6.26-2.78-6.92-6.28-.81,1.54-1.38,3.24-1.94,4.89-.7,2.13-1.13,4.24-1.44,6.48-.49,3.08-1.26,8.66-1.81,11.68-.04.11-.17.96-.21,1.08-.04.26-.23.73-.49.83-.18.09-.36.13-.54.16-.29,1.71-2.78,2.24-4.23,2.32-.62.1-1.44.06-1.72.52,0,.01.01-.01.03.02.32.54.88.84,1.26,1.46.3.37.29,1.2-.03,1.55-.69.91-1.84,1.09-2.75,1.28.31,1.11.53,2.23.49,3.38,0,.11-.07.35-.24.48-.83.61-1.77.92-2.71,1.26-.73.25-1.48.46-2.25.61,1.28-.85,2.71-1.47,4.05-2.18.16-.08.31-.17.42-.25,0,0,0-.01,0-.03.09-1.07.03-2.16.1-3.25,0,0-.01,0-.02,0-1.11-.05-2.06-.61-2.93-1.27-.09-.09-.21-.22-.28-.39-.25-.75-.26-1.55-.37-2.27-.1-.62-.17-1.4-.51-1.84-.64-.25-1.48.03-2.29-.16-1.29-.18-1.86-1.47-1.52-2.59-1.55-.84-1.31-2.98-1.4-4.47,0-4.56.56-9.05.74-13.48.03-.94.02-1.88-.07-2.8-2.5,2.59-7.35,2.38-10.57,1.48-2.08-.51-3.13-2.69-3.39-4.65-.3-1.96-.23-3.93.08-5.86-.04.97-.05,1.95,0,2.91.19,2.61.48,6.25,3.48,7.06,3.08.9,7.75,1.22,10.38-1.03-.22-2.29-.9-4.46-2.57-6.18-3.82-4.43-10.49-3.29-15.49-1.78,4.15-1.6,9.04-2.69,13.31-.89,2.12,1.02,3.79,2.83,4.84,4.93,1.03,2.12,1.13,4.52,1.16,6.82-.04,4.56-.56,9.02-.48,13.46.03.91.05,2.22.38,2.97.12.18.35.34.82.34,1.25.02,2.59-.59,3.95-.27.33.1.65.3.89.57.11.14.35.59.37.62.07.08.09.12.23.15,1.25.11,2.41-.68,3.69-.97,1.59-.44,3.22.71,4.75.93.05-.26.15-.75.16-.83.54-2.98,1.42-8.58,1.94-11.62.71-4.5,2.08-8.96,4.53-12.86,2.69-4.24,7.97-4.55,12.48-4.34,2.25.07,4.5.28,6.73.52-.7-.03-1.4-.04-2.1-.06ZM46.09,88.81c1.21,1.84-1.29,5.24-1.29,5.24,0,0-1.13-.39-2.15-2.97-1.02-2.58.57-4.34.57-4.34l.21-.35c-.23-.14.88-.29,2.66,2.42ZM87.96,61.68c-2.81-1.88-4.72-1.77-9.03-3.52-1.72-.7-3.95-.91-6.2-.88-.13,1.14-.4,2.25-.96,3.25-.07.1-.21.29-.29.38-.82.97-.81,2.17-.69,3.52.09,1.19.15,2.47-.13,3.74-.2,1.23-1.2,2.04-1.52,3.28-.97,3.36-2.64,6.76-1.59,10.37-1.05-2.19-1.07-4.86-.35-7.2l.9-3.49c.2-1.15,1.21-2.03,1.45-3.23.43-1.68,0-3.53.22-5.32.09-.99.67-1.86,1.34-2.56.54-.84.88-1.78,1.13-2.76-1.85.05-3.67.24-5.2.45-.11.72-.23,1.44-.3,2.16l.03.39c.11,1.34.18,2.74.07,4.09-.11,1.33-.13,2.85-.75,4.16-.19.47-.72,1.73-.93,2.21-.11.26-.7,1.6-.8,1.83-.15.35-.18.68-.26,1.06l-.51,3.11c.1,1.03.34,2.11.5,3.17-.42-1.08-.88-2.15-1.09-3.33,0-.14.05-.49.06-.64l.05-.8c.09-.96.05-1.99.35-2.93.47-1.26,1.12-2.94,1.62-4.18.85-2.4.79-5.16.87-7.72v-.42c.14-.71.33-1.4.53-2.09-1.59.23-2.77.45-3.17.48-.41.03-.89.02-1.42-.03.25,2.93.05,5.54.05,8.33v.17s-.1.15-.1.15c-.5.8-1.09,1.62-1.4,2.5.03.09.08.25.09.31.15.97.19,2.16-.25,2.97-.15.73.08,1.75.02,2.55.12,1.75.85,3.51,1.3,5.21-.56-.89-1.16-2.34-1.58-3.32-.24-.56-.48-1.2-.52-1.86,0-1.02-.4-1.83-.17-2.91.35-.74.22-1.67.11-2.41-.1-.31-.17-.5-.1-.79.3-1.02.89-1.88,1.47-2.75v-1.42s.01-.04.01-.04c.21-1.66.29-3.42.39-5.11,0-.54.05-1.09.09-1.65-1.71-.19-3.78-.62-5.7-.92l.11,1.23c.05.74.17,1.5.01,2.26-.37,1.72-.85,3.52-.56,5.27.23,1.74.52,3.6.68,5.35.02.28.05.48.03.87-.3,2.53-.52,5.1-.93,7.62-.23-2.82-.01-5.57-.11-8.39-.25-1.79-.71-4.31-.87-6.1-.05-1.62.41-3.19.84-4.73.1-.24.13-.38.15-.64.06-.93.07-1.89.1-2.84-1.27-.18-2.45-.3-3.36-.22-3.38.29-9.8,3.26-12.5,5.31-3.89,2.95-12.64,12.53-15.58,15.78-.14,4.09-.23,8.19-.04,12.24.09,2.03.26,4.03.87,5.87,2.79,7.6,6.35,15.03,10.45,22.02,1.09,1.69,2.15,3.52,3.86,4.65-.96-.4-1.74-1.13-2.45-1.87-2.12-2.26-3.82-4.89-5.41-7.55-3.12-5.36-5.87-10.91-7.85-16.82-.64-2.08-.71-4.22-.74-6.28,0-4,.39-7.96.97-11.89-.41.45-.64.71-.64.71l-1.88-14.85v-.92s.03-.09.03-.14c0-.07,0-.14-.03-.21v-.14s-.04-.01-.07-.03c-.06-.11-.15-.2-.25-.27-.08-.1-.16-.21-.26-.35-1.23-1.97-5.02-10.31-5.88-13.03-.71-2.24,1.4-9.32,2.27-11.85.08-.23.04-.48-.09-.68l-4.26-6.13c.3-1.13.21-2.05.08-2.64,1.02-.64,3.15-2.21,4.17-4.76,1.33-3.32,4.57-7.55,6.06-7.35,2.31.32,8.14-1.68,8.8-1.91.33-.11.54-.44.51-.78-.09-.97.02-3.14.88-3.66.21-.13.67.21,1.33.74,1.15.91,2.73,2.16,5.04,1.53,1.66-.45,1.91-.52,2.12-.96.18-.36.04-.68-.02-.82-.15-.35.43-1.16.79-1.61,2.49-3.11,7.29-6.62,10.71-6.84,2.15-.14,3.22.58,4.15,1.21.61.41,1.18.8,1.94.91.74.11,1.49-.27,2.28-.68.57-.29,1.17-.6,1.61-.62h.09c5.28-.23,9.88.26,12.94,1.38,3.7,1.35,9.43.19,13.61-.66,1.69-.34,3.16-.64,3.98-.66,0,0,.02,0,.02,0,1.71,0,10.32,4.2,12.7,9.55,2.44,5.49,20.05,20.21,22.21,22,.12.45.24.94.36,1.44-.34.8-.66,1.6-.99,2.39l-1.4,3.27c-.44,1.09-.86,2.25-1.6,3.2-.73.97-1.66,1.69-2.75,2.27-2.13,1.19-4.17,2.51-6.17,3.9-1.78,1.32-3.52,2.7-5.13,4.27-1.46-1.32-2.92-2.64-4.4-3.94-3.45-2.33-6.93-4.6-10.41-6.87-4.38-2.79-8.55-5.87-13.07-8.44-.33-.15-.77-.46-1.14-.17-1.03.75-2.34,2.02-3.65,1.25,0,0-.42-.17-.42-.17-8.17-2.19-16.58-3.65-25.04-4.04-3.23-.22-6.26,1.41-9.19,2.51-3.5,1.47-7.04,2.86-10.35,4.76-2.63,2.37-5.4,4.62-7.58,7.47-1.67,2.72-2.17,5.9-2.89,8.95-.02.09.13.13.15.04,1.25-3.85,2.17-8.07,5.51-10.67,1.78-1.6,3.69-3.19,5.53-4.72,5.12-2.52,10.64-4.55,15.98-6.49.58-.16,1.44-.21,2.08-.25,3.32-.05,6.63.3,9.93.7,5.09.67,10.23,1.36,15.24,2.47.17.04.51.13.67.19,1.62.88,3.19-.43,4.34-1.43l.06-.04s0,0,.01,0c1.12.4,2.12,1.09,3.16,1.7,6.96,4.23,13.92,9.57,20.24,14.22,2.5,2.34,5.08,4.67,7.65,6.95l.19.17s.09.07.07.07c-.01,0-.02,0-.02-.01,0-.05.01.04.02.07.23,1.66-.21,3.36-.47,5.06-.8,4.66-2.61,11.08-3.69,15.82-.04-.25-.08-.48-.15-.67-.94-2.5-6.88-6.56-9.69-8.13-2.81-1.56-8.44-7.5-11.25-9.38ZM100.75,116.35c3.65-6.04,9.82-11.59,9.78-19.08.22.06.44.09.66.09.19,0,.39-.02.6-.06.82,7.09-5.92,14.11-11.04,19.04ZM129.68,77.51c-1.64.35-8.28,5.06-9.72,7.44-.66-.59-1.35-1.11-2.06-1.59-.54-.35-1.15-.65-1.65-.95-.87-.75-1.84-1.78-2.26-2.9-.45-2.05-.91-3.82-2.44-5.41-.05-.05-.14-.02-.14.05-.09,2.23.86,3.88,2.14,5.57.52.87.7,1.91,1.13,2.85.98,1.7,3,2.67,4.95,3.21-.08.48.08.82.22,1.02.13.89-2.53,5.08-5.8,7.64-1.45,1.13-2.67,1.62-3.29,1.31-.27-.14-.59-.09-.81.08-.06-.15-.1-.32-.13-.51-.32-.72-.2-1.66-.17-2.37,0-.21.02-.44.04-.66-.08-.78-.27-1.47-.77-1.87-1.39-1.12.44-7.2.19-10.27.03,0,.05-.01.06-.04.94-2.59,1.81-5.21,2.6-7.85.69-2.44,1.44-4.86,2.01-7.33.51.8,1.1,1.52,1.73,2.2,1.33,1.57,3.13,2.56,4.83,3.63,1.79,1.18,2.89,2.91,5.02,3.71,2.3.63,4.63.53,6.9.05-1.11,1.48-2.13,2.71-2.57,2.98ZM132.95,73.59c-2.44-.23-4.87-.21-7.23-.5-1.77-.56-3.65-1.47-5.09-2.71-2.04-2.18-4.11-4.32-6.81-5.71.13-.56.24-1.12.34-1.68.8.34,1.62.59,2.45.81,2.01.63,4.11.53,6.18.58,1.57.1,3.09.58,4.67.74,1.54.07,3.27-.6,4.59-.82.37-.04.53-.07.83.13,1.13.96,2.27,1.87,3.54,2.65-.02.57-.06,1.03-.12,1.27-.16.59-1.75,3.01-3.36,5.22Z"/>
  <path class="cls-1" d="M74.63,89.34c-.62.71-1.13,1.49-1.57,2.32,1.35,5,5.35,6.52,10.36,5.72,4.76-1.19,5.92-6.98,6.51-11.21-1.54-.04-3.08-.08-4.62-.06-3.77.12-8.02.23-10.68,3.23ZM81.1,94.58s-1.45-1.47-1.56-3.49c-.12-2.03,1.56-3.91,1.56-3.91h.29s1.79.83,2,3.7c.21,2.87-2.29,3.7-2.29,3.7Z"/>
  <path class="cls-1" d="M64.66,116.51c-.78-.24-1.53-.55-2.29-.67-.7-.03-1.35.35-2.08.57-1.41.54-3.51,1.05-4.24-.76-.05-.13-.14-.11-.19-.16-1.44-.21-3.16.72-4.67.07.03.91.52,1.77,1.52,1.74.84.04,1.74-.47,2.7-.09.39.14.7.57.85.91.46,1.02.6,2.33.81,3.38.02.09.04.17.06.24.34.22,1.2.68,1.75.78.6-.13,1.05-.21,1.45-.39.2-.08.34-.2.38-.25,0,0,0,0,0,0-.38-.66-1.7-1.58-1.2-2.65.55-1.11,1.91-1.01,2.82-.99,1.13.08,2.14.08,3.16-.39.44-.21.91-.5,1.07-1-.66.08-1.3-.2-1.89-.35Z"/>
</svg>